<svg xmlns="http://www.w3.org/2000/svg" xmlns:xlink="http://www.w3.org/1999/xlink" width="190" zoomAndPan="magnify" viewBox="0 0 142.5 44.999999" height="60" preserveAspectRatio="xMidYMid meet" version="1.0"><defs><g/><clipPath id="056d80d312"><path d="M 120 11 L 142 11 L 142 36 L 120 36 Z M 120 11 " clip-rule="nonzero"/></clipPath><clipPath id="51f9d93fc2"><path d="M 49.863281 2.171875 L 60.328125 2.171875 L 60.328125 12.632812 L 49.863281 12.632812 Z M 49.863281 2.171875 " clip-rule="nonzero"/></clipPath></defs><g fill="#2b2b2b" fill-opacity="1"><g transform="translate(2.097032, 33.618805)"><g><path d="M 12.179688 -0.585938 C 8.730469 -0.378906 7.039062 -6.695312 7.109375 -12.871094 C 7.175781 -18.769531 8.867188 -24.671875 12.179688 -24.464844 C 15.527344 -24.292969 16.632812 -20.082031 14.285156 -15.699219 C 14.386719 -15.492188 14.386719 -15.421875 14.527344 -15.183594 C 17.492188 -15.5625 22.117188 -17.011719 22.117188 -17.011719 C 22.082031 -20.460938 20.324219 -23.222656 16.734375 -24.429688 C 8.382812 -27.121094 0.550781 -21.703125 0.171875 -13.113281 C -0.101562 -6.660156 3.933594 0 12.25 0.0351562 C 18.839844 0.0703125 22.046875 -3.277344 22.117188 -7.9375 C 22.117188 -7.9375 17.253906 -9.453125 14.320312 -9.800781 C 14.25 -9.660156 14.179688 -9.59375 14.148438 -9.488281 C 16.664062 -5.039062 15.597656 -0.757812 12.179688 -0.585938 Z M 12.179688 -0.585938 "/></g></g></g><g fill="#2b2b2b" fill-opacity="1"><g transform="translate(23.901459, 33.618805)"><g><path d="M 17.667969 -13.800781 C 17.21875 -19.53125 8.902344 -22.082031 3.933594 -17.839844 C 2.035156 -16.25 0.722656 -13.628906 0.722656 -9.800781 C 0.757812 1.136719 13.765625 3.726562 16.699219 -6.039062 L 16.285156 -6.210938 C 13.972656 -2.96875 8.316406 -2.347656 7.28125 -8.246094 C 9.488281 -8.796875 16.425781 -12.9375 17.320312 -13.179688 C 17.5625 -13.25 17.667969 -13.628906 17.667969 -13.800781 Z M 13.59375 -17.21875 C 13.179688 -15.871094 11.523438 -13.492188 7.175781 -9.109375 C 7.140625 -9.488281 7.109375 -9.902344 7.109375 -10.316406 C 7.109375 -14.179688 8.144531 -16.734375 9.351562 -18.082031 C 11.042969 -19.910156 14.148438 -19.183594 13.59375 -17.21875 Z M 13.59375 -17.21875 "/></g></g></g><g fill="#2b2b2b" fill-opacity="1"><g transform="translate(41.186269, 33.618805)"><g><path d="M 9.453125 -0.484375 L 7.832031 -1.585938 C 7.832031 -1.585938 7.796875 -24.707031 7.832031 -25.707031 C 7.867188 -26.5 7.382812 -26.878906 6.660156 -26.914062 C 6.175781 -26.914062 5.554688 -26.914062 4.863281 -26.914062 C 3.140625 -26.914062 0.378906 -26.878906 0.378906 -26.878906 L 0.378906 -26.394531 L 1.964844 -25.328125 L 1.964844 -1.585938 L 0.136719 -0.484375 L 0.136719 0 C 0.136719 0 1.863281 0 4.863281 0 C 7.832031 0 9.453125 0 9.453125 0 Z M 9.453125 -0.484375 "/></g></g></g><g fill="#2b2b2b" fill-opacity="1"><g transform="translate(49.604346, 33.618805)"><g><path d="M 17.667969 -13.800781 C 17.21875 -19.53125 8.902344 -22.082031 3.933594 -17.839844 C 2.035156 -16.25 0.722656 -13.628906 0.722656 -9.800781 C 0.757812 1.136719 13.765625 3.726562 16.699219 -6.039062 L 16.285156 -6.210938 C 13.972656 -2.96875 8.316406 -2.347656 7.28125 -8.246094 C 9.488281 -8.796875 16.425781 -12.9375 17.320312 -13.179688 C 17.5625 -13.25 17.667969 -13.628906 17.667969 -13.800781 Z M 13.59375 -17.21875 C 13.179688 -15.871094 11.523438 -13.492188 7.175781 -9.109375 C 7.140625 -9.488281 7.109375 -9.902344 7.109375 -10.316406 C 7.109375 -14.179688 8.144531 -16.734375 9.351562 -18.082031 C 11.042969 -19.910156 14.148438 -19.183594 13.59375 -17.21875 Z M 13.59375 -17.21875 "/></g></g></g><g fill="#2b2b2b" fill-opacity="1"><g transform="translate(66.889156, 33.618805)"><g><path d="M 8.109375 -18.667969 C 8.074219 -19.324219 7.625 -19.667969 6.96875 -19.667969 C 6.453125 -19.703125 0.65625 -19.667969 0.65625 -19.667969 L 0.65625 -19.148438 L 2.242188 -18.113281 L 2.242188 -1.585938 L 0.414062 -0.484375 L 0.449219 0.0351562 L 9.730469 0.0351562 L 9.730469 -0.484375 L 8.144531 -1.585938 C 8.144531 -1.585938 8.109375 -13.90625 8.109375 -17.5625 C 8.351562 -18.21875 8.730469 -18.597656 9.417969 -18.703125 C 10.28125 -18.734375 12.972656 -14.078125 13.59375 -13.871094 C 13.59375 -13.972656 13.628906 -19.425781 13.664062 -19.53125 C 12.179688 -19.875 9.902344 -19.667969 8.109375 -18.667969 Z M 8.109375 -18.667969 "/></g></g></g><g fill="#2b2b2b" fill-opacity="1"><g transform="translate(79.792347, 33.618805)"><g><path d="M 16.941406 -0.515625 L 14.527344 -1.621094 C 14.527344 -1.621094 14.5625 -10.039062 14.5625 -11.59375 C 14.5625 -13.90625 14.492188 -15.5625 14.007812 -16.734375 C 12.457031 -20.773438 1 -21.117188 0.414062 -13.558594 C 0.414062 -13.386719 0.515625 -13.007812 0.757812 -12.9375 C 1.691406 -12.664062 4.277344 -11.902344 6.175781 -11.664062 C 6.28125 -11.730469 6.488281 -11.902344 6.589844 -12.007812 C 2.621094 -19.324219 7.554688 -19.804688 8.28125 -18.5625 C 8.660156 -17.875 8.730469 -16.769531 8.695312 -11.523438 C 7.246094 -9.210938 0.414062 -9.765625 0.414062 -4.175781 C 0.414062 0.828125 5.867188 1.726562 8.660156 -1.933594 L 8.660156 0 C 8.660156 0 10.179688 -0.0351562 11.523438 -0.0351562 C 14.527344 -0.0351562 16.941406 0 16.941406 0 Z M 5.761719 -5.3125 C 5.761719 -8.488281 7.589844 -9.453125 8.695312 -10.972656 C 8.695312 -9.59375 8.660156 -2.449219 8.660156 -2.449219 C 7.660156 -1.828125 5.761719 -2.140625 5.761719 -5.3125 Z M 5.761719 -5.3125 "/></g></g></g><g fill="#2b2b2b" fill-opacity="1"><g transform="translate(95.835123, 33.618805)"><g><path d="M 11.109375 -19.703125 L 8.558594 -19.703125 C 8.558594 -21.53125 8.558594 -23.1875 8.589844 -23.429688 C 8.589844 -24.1875 8.144531 -24.601562 7.417969 -24.601562 C 6.902344 -24.636719 6.28125 -24.636719 5.589844 -24.636719 C 3.898438 -24.636719 1.105469 -24.601562 1.105469 -24.601562 L 1.105469 -24.085938 L 2.691406 -23.050781 C 2.691406 -22.015625 2.691406 -20.632812 2.691406 -19.703125 L 1.34375 -19.703125 L 1.34375 -19.082031 L 2.691406 -19.082031 C 2.691406 -14.835938 2.691406 -12.214844 2.691406 -10.039062 C 2.65625 -4.035156 1.691406 0 7.003906 0.0351562 C 8.796875 0.0351562 10.074219 -1.242188 12.179688 -2.863281 L 11.628906 -3.277344 L 8.660156 -1.3125 C 8.660156 -1.3125 8.589844 -3.070312 8.589844 -3.554688 C 8.589844 -8.832031 8.558594 -14.976562 8.558594 -19.082031 L 11.109375 -19.082031 Z M 11.109375 -19.703125 "/></g></g></g><g fill="#2b2b2b" fill-opacity="1"><g transform="translate(107.427281, 33.618805)"><g><path d="M 17.667969 -13.800781 C 17.21875 -19.53125 8.902344 -22.082031 3.933594 -17.839844 C 2.035156 -16.25 0.722656 -13.628906 0.722656 -9.800781 C 0.757812 1.136719 13.765625 3.726562 16.699219 -6.039062 L 16.285156 -6.210938 C 13.972656 -2.96875 8.316406 -2.347656 7.28125 -8.246094 C 9.488281 -8.796875 16.425781 -12.9375 17.320312 -13.179688 C 17.5625 -13.25 17.667969 -13.628906 17.667969 -13.800781 Z M 13.59375 -17.21875 C 13.179688 -15.871094 11.523438 -13.492188 7.175781 -9.109375 C 7.140625 -9.488281 7.109375 -9.902344 7.109375 -10.316406 C 7.109375 -14.179688 8.144531 -16.734375 9.351562 -18.082031 C 11.042969 -19.910156 14.148438 -19.183594 13.59375 -17.21875 Z M 13.59375 -17.21875 "/></g></g></g><g clip-path="url(#056d80d312)"><g fill="#2b2b2b" fill-opacity="1"><g transform="translate(124.712091, 33.618805)"><g><path d="M 7.453125 -14.421875 C 3.65625 -19.390625 9.179688 -20.667969 10.695312 -16.769531 C 11.25 -15.355469 11.664062 -13.765625 11.9375 -13.007812 L 12.492188 -13.007812 C 12.800781 -13.972656 14.386719 -17.976562 14.386719 -18.046875 C 7.488281 -22.015625 -3.828125 -18.113281 2.070312 -10.59375 C 3.933594 -8.074219 6.96875 -6.726562 8.417969 -3.691406 C 9.523438 -1.3125 8.28125 -0.414062 6.832031 -0.621094 C 3.96875 -1 3.65625 -4.347656 2.761719 -6.417969 L 2.140625 -6.417969 C 1.792969 -5.3125 0.484375 -1.519531 0.449219 -1.414062 C 1.070312 -1.070312 9.9375 1.933594 13.457031 -2.347656 C 17.355469 -7.074219 9.972656 -11.144531 7.453125 -14.421875 Z M 7.453125 -14.421875 "/></g></g></g></g><g clip-path="url(#51f9d93fc2)"><path fill="#2b2b2b" d="M 60.535156 7.507812 C 56.535156 8.246094 55.9375 8.839844 55.199219 12.84375 C 54.460938 8.839844 53.867188 8.246094 49.863281 7.507812 C 53.867188 6.769531 54.460938 6.171875 55.199219 2.171875 C 55.9375 6.171875 56.535156 6.769531 60.535156 7.507812 Z M 60.535156 7.507812 " fill-opacity="1" fill-rule="nonzero"/></g><path fill="#2b2b2b" d="M 75.851562 39.648438 L 77.375 39.648438 L 77.375 39.890625 L 75.851562 39.890625 Z M 75.851562 39.648438 " fill-opacity="1" fill-rule="nonzero"/><g fill="#2b2b2b" fill-opacity="1"><g transform="translate(75.853197, 39.403812)"><g/></g></g><path fill="#2b2b2b" d="M 77.375 39.648438 L 134.492188 39.648438 L 134.492188 39.890625 L 77.375 39.890625 Z M 77.375 39.648438 " fill-opacity="1" fill-rule="nonzero"/><g fill="#2b2b2b" fill-opacity="1"><g transform="translate(77.376187, 39.403812)"><g><path d="M 1.886719 0 L 2.511719 0 L 1.554688 -2.65625 L 0.898438 -2.65625 L -0.0585938 0 L 0.566406 0 L 0.730469 -0.5 L 1.722656 -0.5 Z M 0.886719 -0.988281 L 1.226562 -2.042969 L 1.566406 -0.988281 Z M 0.886719 -0.988281 "/></g></g></g><g fill="#2b2b2b" fill-opacity="1"><g transform="translate(80.285591, 39.403812)"><g><path d="M 1.527344 0.0351562 C 2.054688 0.0351562 2.511719 -0.261719 2.738281 -0.695312 L 2.230469 -0.957031 C 2.105469 -0.703125 1.84375 -0.535156 1.527344 -0.535156 C 1.082031 -0.535156 0.738281 -0.882812 0.738281 -1.328125 C 0.738281 -1.777344 1.082031 -2.121094 1.527344 -2.121094 C 1.84375 -2.121094 2.105469 -1.953125 2.230469 -1.699219 L 2.738281 -1.960938 C 2.511719 -2.394531 2.054688 -2.691406 1.527344 -2.691406 C 0.773438 -2.691406 0.164062 -2.082031 0.164062 -1.328125 C 0.164062 -0.574219 0.773438 0.0351562 1.527344 0.0351562 Z M 1.527344 0.0351562 "/></g></g></g><g fill="#2b2b2b" fill-opacity="1"><g transform="translate(83.593355, 39.403812)"><g><path d="M 1.527344 0.0351562 C 2.054688 0.0351562 2.511719 -0.261719 2.738281 -0.695312 L 2.230469 -0.957031 C 2.105469 -0.703125 1.84375 -0.535156 1.527344 -0.535156 C 1.082031 -0.535156 0.738281 -0.882812 0.738281 -1.328125 C 0.738281 -1.777344 1.082031 -2.121094 1.527344 -2.121094 C 1.84375 -2.121094 2.105469 -1.953125 2.230469 -1.699219 L 2.738281 -1.960938 C 2.511719 -2.394531 2.054688 -2.691406 1.527344 -2.691406 C 0.773438 -2.691406 0.164062 -2.082031 0.164062 -1.328125 C 0.164062 -0.574219 0.773438 0.0351562 1.527344 0.0351562 Z M 1.527344 0.0351562 "/></g></g></g><g fill="#2b2b2b" fill-opacity="1"><g transform="translate(86.901119, 39.403812)"><g><path d="M 1.882812 -2.144531 L 1.882812 -2.65625 L 0.285156 -2.65625 L 0.285156 0 L 1.882812 0 L 1.882812 -0.515625 L 0.867188 -0.515625 L 0.867188 -1.070312 L 1.734375 -1.070312 L 1.734375 -1.585938 L 0.867188 -1.585938 L 0.867188 -2.144531 Z M 1.882812 -2.144531 "/></g></g></g><g fill="#2b2b2b" fill-opacity="1"><g transform="translate(89.421015, 39.403812)"><g><path d="M 0.847656 -0.519531 L 0.847656 -2.65625 L 0.261719 -2.65625 L 0.261719 0 L 1.726562 0 L 1.726562 -0.519531 Z M 0.847656 -0.519531 "/></g></g></g><g fill="#2b2b2b" fill-opacity="1"><g transform="translate(91.613371, 39.403812)"><g><path d="M 1.882812 -2.144531 L 1.882812 -2.65625 L 0.285156 -2.65625 L 0.285156 0 L 1.882812 0 L 1.882812 -0.515625 L 0.867188 -0.515625 L 0.867188 -1.070312 L 1.734375 -1.070312 L 1.734375 -1.585938 L 0.867188 -1.585938 L 0.867188 -2.144531 Z M 1.882812 -2.144531 "/></g></g></g><g fill="#2b2b2b" fill-opacity="1"><g transform="translate(94.133267, 39.403812)"><g><path d="M 1.648438 -1.09375 C 1.960938 -1.1875 2.183594 -1.480469 2.183594 -1.84375 C 2.183594 -2.292969 1.847656 -2.65625 1.390625 -2.65625 L 0.261719 -2.65625 L 0.261719 0 L 0.847656 0 L 0.847656 -1.027344 L 1.082031 -1.027344 L 1.734375 0 L 2.390625 0 Z M 1.300781 -1.511719 L 0.847656 -1.511719 L 0.847656 -2.140625 L 1.300781 -2.140625 C 1.488281 -2.140625 1.625 -2.007812 1.625 -1.824219 C 1.625 -1.640625 1.488281 -1.511719 1.300781 -1.511719 Z M 1.300781 -1.511719 "/></g></g></g><g fill="#2b2b2b" fill-opacity="1"><g transform="translate(96.958572, 39.403812)"><g><path d="M 1.886719 0 L 2.511719 0 L 1.554688 -2.65625 L 0.898438 -2.65625 L -0.0585938 0 L 0.566406 0 L 0.730469 -0.5 L 1.722656 -0.5 Z M 0.886719 -0.988281 L 1.226562 -2.042969 L 1.566406 -0.988281 Z M 0.886719 -0.988281 "/></g></g></g><g fill="#2b2b2b" fill-opacity="1"><g transform="translate(99.867975, 39.403812)"><g><path d="M 1.898438 -2.65625 L -0.0234375 -2.65625 L -0.0234375 -2.140625 L 0.652344 -2.140625 L 0.652344 0 L 1.230469 0 L 1.230469 -2.140625 L 1.898438 -2.140625 Z M 1.898438 -2.65625 "/></g></g></g><g fill="#2b2b2b" fill-opacity="1"><g transform="translate(102.201969, 39.403812)"><g><path d="M 0.285156 0 L 0.867188 0 L 0.867188 -2.65625 L 0.285156 -2.65625 Z M 0.285156 0 "/></g></g></g><g fill="#2b2b2b" fill-opacity="1"><g transform="translate(103.805639, 39.403812)"><g><path d="M 1.527344 0.0351562 C 2.285156 0.0351562 2.890625 -0.574219 2.890625 -1.328125 C 2.890625 -2.082031 2.285156 -2.691406 1.527344 -2.691406 C 0.773438 -2.691406 0.164062 -2.082031 0.164062 -1.328125 C 0.164062 -0.574219 0.773438 0.0351562 1.527344 0.0351562 Z M 1.527344 -0.535156 C 1.082031 -0.535156 0.738281 -0.882812 0.738281 -1.328125 C 0.738281 -1.777344 1.082031 -2.121094 1.527344 -2.121094 C 1.980469 -2.121094 2.320312 -1.777344 2.320312 -1.328125 C 2.320312 -0.882812 1.980469 -0.535156 1.527344 -0.535156 Z M 1.527344 -0.535156 "/></g></g></g><g fill="#2b2b2b" fill-opacity="1"><g transform="translate(107.321436, 39.403812)"><g><path d="M 2.171875 -2.65625 L 2.171875 -0.898438 L 0.863281 -2.65625 L 0.261719 -2.65625 L 0.261719 0 L 0.847656 0 L 0.847656 -1.761719 L 2.148438 0 L 2.75 0 L 2.75 -2.65625 Z M 2.171875 -2.65625 "/></g></g></g><g fill="#2b2b2b" fill-opacity="1"><g transform="translate(110.792969, 39.403812)"><g/></g></g><g fill="#2b2b2b" fill-opacity="1"><g transform="translate(112.312543, 39.403812)"><g><path d="M 1.390625 -2.65625 L 0.261719 -2.65625 L 0.261719 0 L 0.847656 0 L 0.847656 -1.078125 L 1.390625 -1.078125 C 1.839844 -1.078125 2.183594 -1.410156 2.183594 -1.855469 C 2.183594 -2.296875 1.839844 -2.65625 1.390625 -2.65625 Z M 1.296875 -1.558594 L 0.847656 -1.558594 L 0.847656 -2.144531 L 1.296875 -2.144531 C 1.484375 -2.144531 1.625 -2.023438 1.625 -1.851562 C 1.625 -1.675781 1.484375 -1.558594 1.296875 -1.558594 Z M 1.296875 -1.558594 "/></g></g></g><g fill="#2b2b2b" fill-opacity="1"><g transform="translate(114.969652, 39.403812)"><g><path d="M 1.648438 -1.09375 C 1.960938 -1.1875 2.183594 -1.480469 2.183594 -1.84375 C 2.183594 -2.292969 1.847656 -2.65625 1.390625 -2.65625 L 0.261719 -2.65625 L 0.261719 0 L 0.847656 0 L 0.847656 -1.027344 L 1.082031 -1.027344 L 1.734375 0 L 2.390625 0 Z M 1.300781 -1.511719 L 0.847656 -1.511719 L 0.847656 -2.140625 L 1.300781 -2.140625 C 1.488281 -2.140625 1.625 -2.007812 1.625 -1.824219 C 1.625 -1.640625 1.488281 -1.511719 1.300781 -1.511719 Z M 1.300781 -1.511719 "/></g></g></g><g fill="#2b2b2b" fill-opacity="1"><g transform="translate(117.794955, 39.403812)"><g><path d="M 1.527344 0.0351562 C 2.285156 0.0351562 2.890625 -0.574219 2.890625 -1.328125 C 2.890625 -2.082031 2.285156 -2.691406 1.527344 -2.691406 C 0.773438 -2.691406 0.164062 -2.082031 0.164062 -1.328125 C 0.164062 -0.574219 0.773438 0.0351562 1.527344 0.0351562 Z M 1.527344 -0.535156 C 1.082031 -0.535156 0.738281 -0.882812 0.738281 -1.328125 C 0.738281 -1.777344 1.082031 -2.121094 1.527344 -2.121094 C 1.980469 -2.121094 2.320312 -1.777344 2.320312 -1.328125 C 2.320312 -0.882812 1.980469 -0.535156 1.527344 -0.535156 Z M 1.527344 -0.535156 "/></g></g></g><g fill="#2b2b2b" fill-opacity="1"><g transform="translate(121.31075, 39.403812)"><g><path d="M 1.527344 -1.457031 L 1.527344 -1 L 2.257812 -1 C 2.132812 -0.722656 1.859375 -0.535156 1.53125 -0.535156 C 1.085938 -0.535156 0.738281 -0.882812 0.738281 -1.328125 C 0.738281 -1.777344 1.085938 -2.121094 1.53125 -2.121094 C 1.847656 -2.121094 2.105469 -1.953125 2.238281 -1.699219 L 2.742188 -1.960938 C 2.511719 -2.394531 2.054688 -2.691406 1.53125 -2.691406 C 0.773438 -2.691406 0.167969 -2.082031 0.167969 -1.328125 C 0.167969 -0.574219 0.773438 0.0351562 1.53125 0.0351562 C 2.285156 0.0351562 2.894531 -0.574219 2.894531 -1.328125 L 2.894531 -1.457031 Z M 1.527344 -1.457031 "/></g></g></g><g fill="#2b2b2b" fill-opacity="1"><g transform="translate(124.83097, 39.403812)"><g><path d="M 1.648438 -1.09375 C 1.960938 -1.1875 2.183594 -1.480469 2.183594 -1.84375 C 2.183594 -2.292969 1.847656 -2.65625 1.390625 -2.65625 L 0.261719 -2.65625 L 0.261719 0 L 0.847656 0 L 0.847656 -1.027344 L 1.082031 -1.027344 L 1.734375 0 L 2.390625 0 Z M 1.300781 -1.511719 L 0.847656 -1.511719 L 0.847656 -2.140625 L 1.300781 -2.140625 C 1.488281 -2.140625 1.625 -2.007812 1.625 -1.824219 C 1.625 -1.640625 1.488281 -1.511719 1.300781 -1.511719 Z M 1.300781 -1.511719 "/></g></g></g><g fill="#2b2b2b" fill-opacity="1"><g transform="translate(127.656274, 39.403812)"><g><path d="M 1.886719 0 L 2.511719 0 L 1.554688 -2.65625 L 0.898438 -2.65625 L -0.0585938 0 L 0.566406 0 L 0.730469 -0.5 L 1.722656 -0.5 Z M 0.886719 -0.988281 L 1.226562 -2.042969 L 1.566406 -0.988281 Z M 0.886719 -0.988281 "/></g></g></g><g fill="#2b2b2b" fill-opacity="1"><g transform="translate(130.565676, 39.403812)"><g><path d="M 2.578125 -2.65625 L 1.730469 -0.820312 L 0.894531 -2.65625 L 0.261719 -2.65625 L 0.261719 0 L 0.847656 0 L 0.847656 -1.585938 L 1.5625 0 L 1.898438 0 L 2.621094 -1.582031 L 2.621094 0 L 3.207031 0 L 3.207031 -2.65625 Z M 2.578125 -2.65625 "/></g></g></g></svg>